<?xml version="1.0" encoding="UTF-8" ?>
<!DOCTYPE svg PUBLIC "-//W3C//DTD SVG 1.1//EN" "http://www.w3.org/Graphics/SVG/1.1/DTD/svg11.dtd">
<svg width="228pt" height="228pt" viewBox="0 0 228 228" version="1.1" xmlns="http://www.w3.org/2000/svg">
<g id="#7952b3ff">
<path fill="#7952b3" opacity="1.00" d=" M 20.59 0.00 L 206.97 0.00 C 218.07 -0.15 227.91 9.48 228.00 20.59 L 228.00 206.98 C 228.14 218.08 218.51 227.91 207.41 228.00 L 20.90 228.00 C 9.84 228.09 0.09 218.46 0.00 207.41 L 0.00 20.90 C -0.09 9.84 9.54 0.10 20.59 0.00 M 77.14 58.18 C 77.14 94.62 77.14 131.06 77.15 167.50 C 92.08 167.50 107.01 167.50 121.94 167.51 C 129.82 167.58 137.92 166.68 145.08 163.18 C 151.67 160.08 157.15 154.47 159.58 147.56 C 162.98 138.10 161.86 126.51 154.86 118.94 C 150.09 113.47 142.97 111.12 136.03 109.95 C 138.13 108.09 141.03 107.80 143.43 106.50 C 150.88 102.58 155.84 94.45 156.03 86.04 C 156.42 77.92 152.91 69.53 146.22 64.73 C 139.24 59.76 130.42 58.15 121.99 58.18 C 107.04 58.18 92.09 58.18 77.14 58.18 Z" />
<path fill="#7952b3" opacity="1.00" d=" M 96.69 73.71 C 103.77 73.73 110.86 73.66 117.94 73.73 C 123.09 73.80 128.68 74.74 132.56 78.42 C 139.39 84.85 137.75 98.21 128.66 101.75 C 118.53 105.84 107.31 103.58 96.69 104.16 C 96.68 94.01 96.68 83.86 96.69 73.71 Z" />
<path fill="#7952b3" opacity="1.00" d=" M 96.68 118.26 C 105.33 118.34 113.99 118.03 122.64 118.45 C 129.16 118.90 136.64 121.12 139.78 127.42 C 142.86 134.02 141.77 143.13 135.67 147.68 C 130.92 151.22 124.77 151.88 119.03 151.97 C 111.58 152.01 104.14 151.96 96.69 151.97 C 96.68 140.74 96.69 129.50 96.68 118.26 Z" />
</g>
<g id="#ffffffff">
<path fill="#ffffff" opacity="1.00" d=" M 77.14 58.18 C 92.09 58.18 107.04 58.18 121.99 58.18 C 130.42 58.15 139.24 59.76 146.22 64.73 C 152.91 69.53 156.42 77.92 156.03 86.04 C 155.84 94.45 150.88 102.58 143.43 106.50 C 141.03 107.80 138.13 108.09 136.03 109.95 C 142.97 111.12 150.09 113.47 154.86 118.94 C 161.86 126.51 162.98 138.10 159.58 147.56 C 157.15 154.47 151.67 160.08 145.08 163.18 C 137.92 166.68 129.82 167.58 121.94 167.51 C 107.01 167.50 92.08 167.50 77.15 167.50 C 77.14 131.06 77.14 94.62 77.14 58.18 M 96.69 73.71 C 96.68 83.86 96.68 94.01 96.69 104.16 C 107.31 103.58 118.53 105.84 128.66 101.75 C 137.75 98.21 139.39 84.85 132.56 78.42 C 128.68 74.74 123.09 73.80 117.94 73.73 C 110.86 73.66 103.77 73.73 96.69 73.71 M 96.68 118.26 C 96.69 129.50 96.68 140.74 96.69 151.97 C 104.14 151.96 111.58 152.01 119.03 151.97 C 124.77 151.88 130.92 151.22 135.67 147.68 C 141.77 143.13 142.86 134.02 139.78 127.42 C 136.64 121.12 129.16 118.90 122.64 118.45 C 113.99 118.03 105.33 118.34 96.68 118.26 Z" />
</g>
</svg>
