<?xml version="1.0" encoding="UTF-8" ?>
<!DOCTYPE svg PUBLIC "-//W3C//DTD SVG 1.1//EN" "http://www.w3.org/Graphics/SVG/1.1/DTD/svg11.dtd">
<svg width="800pt" height="800pt" viewBox="0 0 800 800" version="1.1" xmlns="http://www.w3.org/2000/svg">
<g id="#0277bdff">
<path fill="#0277bd" opacity="1.00" d=" M 116.67 83.34 C 305.56 83.33 494.45 83.30 683.34 83.36 C 666.64 272.23 650.01 461.12 633.32 650.00 C 555.55 672.17 477.82 694.55 400.02 716.58 C 322.19 694.56 244.46 672.18 166.67 649.99 C 150.00 461.11 133.35 272.22 116.67 83.34 M 400.15 133.31 C 399.80 161.09 400.08 188.89 400.02 216.67 C 348.91 216.72 297.80 216.66 246.70 216.70 C 248.37 238.90 250.05 261.10 251.69 283.30 C 301.13 283.33 350.57 283.29 400.01 283.33 C 400.01 305.56 399.96 327.79 400.04 350.02 C 374.47 350.10 348.91 350.03 323.34 350.06 C 324.46 372.23 325.64 394.40 326.65 416.58 C 351.11 416.73 375.57 416.56 400.03 416.67 C 399.98 449.42 399.97 482.16 400.04 514.91 C 377.18 507.46 354.51 499.34 331.68 491.75 C 331.05 477.86 330.53 463.96 329.99 450.06 C 307.78 450.05 285.56 450.05 263.34 450.06 C 265.05 480.58 266.68 511.11 268.35 541.64 C 312.26 556.10 356.17 570.55 400.08 584.99 C 399.97 611.64 399.90 638.30 400.12 664.95 C 462.30 647.21 524.48 629.49 586.63 611.63 C 600.39 455.08 613.88 298.51 627.60 141.95 C 627.88 139.08 628.20 136.20 627.98 133.32 C 552.04 133.33 476.09 133.34 400.15 133.31 Z" />
</g>
<g id="#039be5ff">
<path fill="#039be5" opacity="1.00" d=" M 400.15 133.31 C 476.09 133.34 552.04 133.33 627.98 133.32 C 628.20 136.20 627.88 139.08 627.60 141.95 C 613.88 298.51 600.39 455.08 586.63 611.63 C 524.48 629.49 462.30 647.21 400.12 664.95 C 399.90 638.30 399.97 611.64 400.08 584.99 C 443.95 570.56 487.82 556.12 531.69 541.68 C 535.09 485.80 538.48 429.92 541.89 374.04 C 545.02 321.56 548.53 269.11 551.62 216.63 C 501.08 216.71 450.55 216.62 400.02 216.67 C 400.08 188.89 399.80 161.09 400.15 133.31 Z" />
<path fill="#039be5" opacity="1.00" d=" M 400.01 283.33 C 427.23 283.40 454.46 283.25 481.68 283.40 C 479.96 305.59 478.31 327.78 476.68 349.98 C 451.13 350.04 425.59 349.96 400.04 350.02 C 399.96 327.79 400.01 305.56 400.01 283.33 Z" />
<path fill="#039be5" opacity="1.00" d=" M 400.03 416.67 C 424.45 416.75 448.86 416.66 473.28 416.71 C 471.66 441.70 470.00 466.70 468.27 491.68 C 445.52 499.39 422.82 507.27 400.04 514.91 C 399.97 482.16 399.98 449.42 400.03 416.67 Z" />
</g>
<g id="#f8f8f8ff">
<path fill="#f8f8f8" opacity="1.00" d=" M 246.70 216.70 C 297.80 216.66 348.91 216.72 400.02 216.67 C 450.55 216.62 501.08 216.71 551.62 216.63 C 548.53 269.11 545.02 321.56 541.89 374.04 C 538.48 429.92 535.09 485.80 531.69 541.68 C 487.82 556.12 443.95 570.56 400.08 584.99 C 356.17 570.55 312.26 556.10 268.35 541.64 C 266.68 511.11 265.05 480.58 263.34 450.06 C 285.56 450.05 307.78 450.05 329.99 450.06 C 330.53 463.96 331.05 477.86 331.68 491.75 C 354.51 499.34 377.18 507.46 400.04 514.91 C 422.82 507.27 445.52 499.39 468.27 491.68 C 470.00 466.70 471.66 441.70 473.28 416.71 C 448.86 416.66 424.45 416.75 400.03 416.67 C 375.57 416.56 351.11 416.73 326.65 416.58 C 325.64 394.40 324.46 372.23 323.34 350.06 C 348.91 350.03 374.47 350.10 400.04 350.02 C 425.59 349.96 451.13 350.04 476.68 349.98 C 478.31 327.78 479.96 305.59 481.68 283.40 C 454.46 283.25 427.23 283.40 400.01 283.33 C 350.57 283.29 301.13 283.33 251.69 283.30 C 250.05 261.10 248.37 238.90 246.70 216.70 Z" />
</g>
</svg>
