<?xml version="1.0" encoding="UTF-8" ?>
<!DOCTYPE svg PUBLIC "-//W3C//DTD SVG 1.1//EN" "http://www.w3.org/Graphics/SVG/1.1/DTD/svg11.dtd">
<svg width="344pt" height="262pt" viewBox="0 0 344 262" version="1.1" xmlns="http://www.w3.org/2000/svg">
<g id="#1f4055ff">
<path fill="#1f4055" opacity="1.00" d=" M 0.00 0.00 L 344.00 0.00 L 344.00 262.00 L 0.00 262.00 L 0.00 0.00 M 75.63 64.35 C 75.76 109.13 75.77 153.92 75.63 198.70 C 79.71 199.46 83.86 199.15 87.99 199.18 C 143.64 199.20 199.30 199.16 254.96 199.21 C 256.80 199.20 258.64 198.97 260.47 198.72 C 260.26 166.65 260.40 134.57 260.40 102.50 C 257.41 102.39 254.41 102.37 251.42 102.38 C 251.46 131.38 251.36 160.39 251.47 189.39 C 250.90 189.61 249.75 190.07 249.18 190.29 C 195.07 190.27 140.96 190.29 86.85 190.28 C 86.28 190.06 85.14 189.63 84.57 189.41 C 84.64 150.81 84.63 112.20 84.57 73.60 C 85.16 73.38 86.33 72.93 86.92 72.70 C 90.94 73.22 94.99 73.31 99.01 72.80 C 109.02 72.75 119.03 72.69 129.04 72.85 C 131.69 72.78 134.35 72.90 137.01 72.94 C 146.66 72.88 156.32 72.67 165.99 72.76 C 168.98 72.82 171.98 73.54 174.96 72.87 C 188.00 72.70 201.00 73.14 214.05 72.84 C 229.46 72.77 244.95 73.08 260.40 72.61 C 260.36 69.85 260.37 67.09 260.45 64.33 C 256.00 63.63 251.50 63.91 247.02 63.88 C 191.69 63.86 136.36 63.90 81.03 63.86 C 79.22 63.88 77.42 64.12 75.63 64.35 M 156.87 104.78 C 156.65 116.66 156.85 128.54 156.78 140.42 C 158.96 140.45 161.15 140.47 163.33 140.47 C 163.38 135.22 163.24 129.97 163.47 124.73 C 168.21 124.73 172.95 124.75 177.69 124.70 C 178.09 129.96 177.64 135.24 178.11 140.50 C 180.19 140.49 182.27 140.47 184.35 140.45 C 184.34 128.21 184.39 115.98 184.32 103.74 C 182.30 103.72 180.28 103.69 178.27 103.66 C 177.60 108.81 177.98 114.00 177.84 119.17 C 173.00 119.17 168.16 119.23 163.32 119.10 C 163.36 113.98 163.36 108.85 163.30 103.73 C 161.23 104.10 158.14 102.63 156.87 104.78 M 124.25 140.47 C 126.35 140.47 128.45 140.47 130.55 140.46 C 130.57 135.83 130.54 131.20 130.60 126.56 C 134.45 126.58 138.31 126.56 142.17 126.45 C 145.37 125.10 148.38 123.18 149.82 119.88 C 150.91 117.20 150.49 114.27 150.50 111.46 L 149.84 111.38 C 148.72 107.02 144.48 104.17 140.13 103.86 C 134.87 103.50 129.60 103.82 124.34 103.70 C 124.15 115.96 124.31 128.21 124.25 140.47 M 191.79 103.74 C 191.74 115.97 191.78 128.21 191.77 140.44 C 193.95 140.46 196.14 140.47 198.32 140.47 C 198.35 135.83 198.31 131.20 198.39 126.56 C 202.29 126.57 206.19 126.63 210.08 126.36 C 211.83 125.45 213.67 124.65 215.19 123.37 C 220.59 118.07 218.94 107.23 211.48 104.68 C 205.10 102.82 198.34 104.05 191.79 103.74 M 123.38 160.61 C 154.79 160.67 186.20 160.68 217.61 160.60 C 217.59 157.62 217.58 154.64 217.53 151.65 C 186.18 151.63 154.82 151.65 123.47 151.65 C 123.40 154.63 123.39 157.62 123.38 160.61 Z" />
<path fill="#1f4055" opacity="1.00" d=" M 130.61 109.51 C 133.74 109.49 136.87 109.47 140.00 109.66 C 140.57 109.91 141.70 110.42 142.27 110.67 C 144.02 112.99 144.44 116.23 143.00 118.81 C 142.03 120.18 140.27 120.35 138.79 120.77 C 136.13 121.35 133.41 121.28 130.71 121.22 C 130.50 117.32 130.54 113.41 130.61 109.51 Z" />
<path fill="#1f4055" opacity="1.00" d=" M 198.41 109.52 C 202.37 109.55 206.49 109.02 210.23 110.66 C 212.02 112.82 211.82 115.60 211.53 118.22 C 208.12 121.95 202.76 120.27 198.34 120.58 C 198.33 116.89 198.33 113.20 198.41 109.52 Z" />
</g>
<g id="#ffffffff">
<path fill="#ffffff" opacity="1.00" d=" M 75.63 64.35 C 77.42 64.12 79.22 63.88 81.03 63.86 C 136.36 63.90 191.69 63.86 247.02 63.88 C 251.50 63.91 256.00 63.63 260.45 64.33 C 260.37 67.09 260.36 69.85 260.40 72.61 C 244.95 73.08 229.46 72.77 214.05 72.84 C 201.00 73.14 188.00 72.70 174.96 72.87 C 171.98 73.54 168.98 72.82 165.99 72.76 C 156.32 72.67 146.66 72.88 137.01 72.94 C 134.35 72.90 131.69 72.78 129.04 72.85 C 119.03 72.69 109.02 72.75 99.01 72.80 C 94.99 73.31 90.94 73.22 86.92 72.70 C 86.33 72.93 85.16 73.38 84.57 73.60 C 84.63 112.20 84.64 150.81 84.57 189.41 C 85.14 189.63 86.28 190.06 86.85 190.28 C 140.96 190.29 195.07 190.27 249.18 190.29 C 249.75 190.07 250.90 189.61 251.47 189.39 C 251.36 160.39 251.46 131.38 251.42 102.38 C 254.41 102.37 257.41 102.39 260.40 102.50 C 260.40 134.57 260.26 166.65 260.47 198.72 C 258.64 198.97 256.80 199.20 254.96 199.21 C 199.30 199.16 143.64 199.20 87.99 199.18 C 83.86 199.15 79.71 199.46 75.63 198.70 C 75.77 153.92 75.76 109.13 75.63 64.35 Z" />
<path fill="#ffffff" opacity="1.00" d=" M 156.87 104.78 C 158.14 102.63 161.23 104.10 163.30 103.73 C 163.36 108.85 163.36 113.98 163.32 119.10 C 168.16 119.23 173.00 119.17 177.84 119.17 C 177.98 114.00 177.60 108.81 178.27 103.66 C 180.28 103.69 182.30 103.72 184.32 103.74 C 184.39 115.98 184.34 128.21 184.35 140.45 C 182.27 140.47 180.19 140.49 178.11 140.50 C 177.64 135.24 178.09 129.96 177.69 124.70 C 172.95 124.75 168.21 124.73 163.47 124.73 C 163.24 129.97 163.38 135.22 163.33 140.47 C 161.15 140.47 158.96 140.45 156.78 140.42 C 156.85 128.54 156.65 116.66 156.87 104.78 Z" />
<path fill="#ffffff" opacity="1.00" d=" M 124.25 140.47 C 124.31 128.21 124.15 115.96 124.34 103.70 C 129.60 103.82 134.87 103.50 140.13 103.86 C 144.48 104.17 148.72 107.02 149.84 111.38 L 150.50 111.46 C 150.49 114.27 150.91 117.20 149.82 119.88 C 148.38 123.18 145.37 125.10 142.17 126.45 C 138.31 126.56 134.45 126.58 130.60 126.56 C 130.54 131.20 130.57 135.83 130.55 140.46 C 128.45 140.47 126.35 140.47 124.25 140.47 M 130.61 109.51 C 130.54 113.41 130.50 117.32 130.71 121.22 C 133.41 121.28 136.13 121.35 138.79 120.77 C 140.27 120.35 142.03 120.18 143.00 118.81 C 144.44 116.23 144.02 112.99 142.27 110.67 C 141.70 110.42 140.57 109.91 140.00 109.66 C 136.87 109.47 133.74 109.49 130.61 109.51 Z" />
<path fill="#ffffff" opacity="1.00" d=" M 191.79 103.74 C 198.34 104.05 205.10 102.82 211.48 104.68 C 218.94 107.23 220.59 118.07 215.19 123.37 C 213.67 124.65 211.83 125.45 210.08 126.36 C 206.19 126.63 202.29 126.57 198.39 126.56 C 198.31 131.20 198.35 135.83 198.32 140.47 C 196.14 140.47 193.95 140.46 191.77 140.44 C 191.78 128.21 191.74 115.97 191.79 103.74 M 198.41 109.52 C 198.33 113.20 198.33 116.89 198.34 120.58 C 202.76 120.27 208.12 121.95 211.53 118.22 C 211.82 115.60 212.02 112.82 210.23 110.66 C 206.49 109.02 202.37 109.55 198.41 109.52 Z" />
<path fill="#ffffff" opacity="1.00" d=" M 123.38 160.61 C 123.39 157.62 123.40 154.63 123.47 151.65 C 154.82 151.65 186.18 151.63 217.53 151.65 C 217.58 154.64 217.59 157.62 217.61 160.60 C 186.20 160.68 154.79 160.67 123.38 160.61 Z" />
</g>
</svg>
